<mxfile host="app.diagrams.net" agent="Mozilla/5.0 (Windows NT 10.0; Win64; x64) AppleWebKit/537.36 (KHTML, like Gecko) Chrome/131.0.0.0 Safari/537.36" version="25.0.3">
  <diagram name="Страница — 1" id="sxNTvkN3NIbdxi8MQ2r-">
    <mxGraphModel dx="2736" dy="1013" grid="1" gridSize="10" guides="1" tooltips="1" connect="1" arrows="1" fold="1" page="1" pageScale="1" pageWidth="827" pageHeight="1169" math="0" shadow="0">
      <root>
        <mxCell id="0" />
        <mxCell id="1" parent="0" />
        <mxCell id="vSy6v21iyPpM1gTegaNe-4" value="" style="edgeStyle=orthogonalEdgeStyle;rounded=0;orthogonalLoop=1;jettySize=auto;html=1;" edge="1" parent="1" source="vSy6v21iyPpM1gTegaNe-1" target="vSy6v21iyPpM1gTegaNe-3">
          <mxGeometry relative="1" as="geometry" />
        </mxCell>
        <mxCell id="vSy6v21iyPpM1gTegaNe-1" value="&lt;font style=&quot;vertical-align: inherit;&quot;&gt;&lt;font style=&quot;vertical-align: inherit;&quot;&gt;Қолданушы&lt;/font&gt;&lt;/font&gt;" style="ellipse;whiteSpace=wrap;html=1;" vertex="1" parent="1">
          <mxGeometry x="170" y="480" width="120" height="60" as="geometry" />
        </mxCell>
        <mxCell id="vSy6v21iyPpM1gTegaNe-6" value="" style="edgeStyle=orthogonalEdgeStyle;rounded=0;orthogonalLoop=1;jettySize=auto;html=1;" edge="1" parent="1" source="vSy6v21iyPpM1gTegaNe-2" target="vSy6v21iyPpM1gTegaNe-5">
          <mxGeometry relative="1" as="geometry" />
        </mxCell>
        <mxCell id="vSy6v21iyPpM1gTegaNe-2" value="&lt;font style=&quot;vertical-align: inherit;&quot;&gt;&lt;font style=&quot;vertical-align: inherit;&quot;&gt;Админ&lt;/font&gt;&lt;/font&gt;" style="ellipse;whiteSpace=wrap;html=1;" vertex="1" parent="1">
          <mxGeometry x="343" y="480" width="127" height="65" as="geometry" />
        </mxCell>
        <mxCell id="vSy6v21iyPpM1gTegaNe-8" value="" style="edgeStyle=orthogonalEdgeStyle;rounded=0;orthogonalLoop=1;jettySize=auto;html=1;" edge="1" parent="1" source="vSy6v21iyPpM1gTegaNe-3" target="vSy6v21iyPpM1gTegaNe-5">
          <mxGeometry relative="1" as="geometry">
            <Array as="points">
              <mxPoint x="320" y="650" />
              <mxPoint x="320" y="650" />
            </Array>
          </mxGeometry>
        </mxCell>
        <mxCell id="vSy6v21iyPpM1gTegaNe-3" value="&lt;font style=&quot;vertical-align: inherit;&quot;&gt;&lt;font style=&quot;vertical-align: inherit;&quot;&gt;&lt;font style=&quot;vertical-align: inherit;&quot;&gt;&lt;font style=&quot;vertical-align: inherit;&quot;&gt;кітапты іздеу, жазылу,&lt;/font&gt;&lt;/font&gt;&lt;/font&gt;&lt;/font&gt;&lt;div&gt;&lt;font style=&quot;vertical-align: inherit;&quot;&gt;&lt;font style=&quot;vertical-align: inherit;&quot;&gt;&amp;nbsp;пікір қалдыру.&lt;/font&gt;&lt;/font&gt;&lt;/div&gt;" style="whiteSpace=wrap;html=1;" vertex="1" parent="1">
          <mxGeometry x="170" y="620" width="120" height="60" as="geometry" />
        </mxCell>
        <mxCell id="vSy6v21iyPpM1gTegaNe-7" value="" style="edgeStyle=orthogonalEdgeStyle;rounded=0;orthogonalLoop=1;jettySize=auto;html=1;" edge="1" parent="1" source="vSy6v21iyPpM1gTegaNe-5" target="vSy6v21iyPpM1gTegaNe-3">
          <mxGeometry relative="1" as="geometry">
            <Array as="points">
              <mxPoint x="300" y="658" />
              <mxPoint x="300" y="658" />
            </Array>
          </mxGeometry>
        </mxCell>
        <mxCell id="vSy6v21iyPpM1gTegaNe-5" value="&lt;font style=&quot;vertical-align: inherit;&quot;&gt;&lt;font style=&quot;vertical-align: inherit;&quot;&gt;&lt;font style=&quot;vertical-align: inherit;&quot;&gt;&lt;font style=&quot;vertical-align: inherit;&quot;&gt;кітап қосу, қолданушыларды басқару,&amp;nbsp;&lt;/font&gt;&lt;/font&gt;&lt;/font&gt;&lt;/font&gt;&lt;div&gt;&lt;font style=&quot;vertical-align: inherit;&quot;&gt;&lt;font style=&quot;vertical-align: inherit;&quot;&gt;пікірлерді жою.&lt;/font&gt;&lt;/font&gt;&lt;/div&gt;" style="whiteSpace=wrap;html=1;" vertex="1" parent="1">
          <mxGeometry x="346.5" y="620" width="120" height="60" as="geometry" />
        </mxCell>
        <mxCell id="vSy6v21iyPpM1gTegaNe-19" value="Book" style="swimlane;fontStyle=1;align=center;verticalAlign=top;childLayout=stackLayout;horizontal=1;startSize=26;horizontalStack=0;resizeParent=1;resizeParentMax=0;resizeLast=0;collapsible=1;marginBottom=0;whiteSpace=wrap;html=1;direction=east;fillColor=#dae8fc;gradientColor=#7ea6e0;strokeColor=#6c8ebf;" vertex="1" parent="1">
          <mxGeometry x="135" y="826" width="190" height="180" as="geometry">
            <mxRectangle x="530" y="560" width="100" height="30" as="alternateBounds" />
          </mxGeometry>
        </mxCell>
        <mxCell id="vSy6v21iyPpM1gTegaNe-20" value="title" style="text;strokeColor=none;fillColor=none;align=left;verticalAlign=top;spacingLeft=4;spacingRight=4;overflow=hidden;rotatable=0;points=[[0,0.5],[1,0.5]];portConstraint=eastwest;whiteSpace=wrap;html=1;" vertex="1" parent="vSy6v21iyPpM1gTegaNe-19">
          <mxGeometry y="26" width="190" height="18" as="geometry" />
        </mxCell>
        <mxCell id="vSy6v21iyPpM1gTegaNe-90" value="" style="line;strokeWidth=1;fillColor=none;align=left;verticalAlign=middle;spacingTop=-1;spacingLeft=3;spacingRight=3;rotatable=0;labelPosition=right;points=[];portConstraint=eastwest;strokeColor=inherit;" vertex="1" parent="vSy6v21iyPpM1gTegaNe-19">
          <mxGeometry y="44" width="190" height="8" as="geometry" />
        </mxCell>
        <mxCell id="vSy6v21iyPpM1gTegaNe-22" value="author" style="text;strokeColor=none;fillColor=none;align=left;verticalAlign=top;spacingLeft=4;spacingRight=4;overflow=hidden;rotatable=0;points=[[0,0.5],[1,0.5]];portConstraint=eastwest;whiteSpace=wrap;html=1;" vertex="1" parent="vSy6v21iyPpM1gTegaNe-19">
          <mxGeometry y="52" width="190" height="26" as="geometry" />
        </mxCell>
        <mxCell id="vSy6v21iyPpM1gTegaNe-25" value="" style="line;strokeWidth=1;fillColor=none;align=left;verticalAlign=middle;spacingTop=-1;spacingLeft=3;spacingRight=3;rotatable=0;labelPosition=right;points=[];portConstraint=eastwest;strokeColor=inherit;" vertex="1" parent="vSy6v21iyPpM1gTegaNe-19">
          <mxGeometry y="78" width="190" height="8" as="geometry" />
        </mxCell>
        <mxCell id="vSy6v21iyPpM1gTegaNe-24" value="category" style="text;strokeColor=none;fillColor=none;align=left;verticalAlign=top;spacingLeft=4;spacingRight=4;overflow=hidden;rotatable=0;points=[[0,0.5],[1,0.5]];portConstraint=eastwest;whiteSpace=wrap;html=1;" vertex="1" parent="vSy6v21iyPpM1gTegaNe-19">
          <mxGeometry y="86" width="190" height="26" as="geometry" />
        </mxCell>
        <mxCell id="vSy6v21iyPpM1gTegaNe-21" value="" style="line;strokeWidth=1;fillColor=none;align=left;verticalAlign=middle;spacingTop=-1;spacingLeft=3;spacingRight=3;rotatable=0;labelPosition=right;points=[];portConstraint=eastwest;strokeColor=inherit;" vertex="1" parent="vSy6v21iyPpM1gTegaNe-19">
          <mxGeometry y="112" width="190" height="8" as="geometry" />
        </mxCell>
        <mxCell id="vSy6v21iyPpM1gTegaNe-91" value="addBook()" style="text;strokeColor=none;fillColor=none;align=left;verticalAlign=top;spacingLeft=4;spacingRight=4;overflow=hidden;rotatable=0;points=[[0,0.5],[1,0.5]];portConstraint=eastwest;whiteSpace=wrap;html=1;" vertex="1" parent="vSy6v21iyPpM1gTegaNe-19">
          <mxGeometry y="120" width="190" height="26" as="geometry" />
        </mxCell>
        <mxCell id="vSy6v21iyPpM1gTegaNe-93" value="" style="line;strokeWidth=1;fillColor=none;align=left;verticalAlign=middle;spacingTop=-1;spacingLeft=3;spacingRight=3;rotatable=0;labelPosition=right;points=[];portConstraint=eastwest;strokeColor=inherit;" vertex="1" parent="vSy6v21iyPpM1gTegaNe-19">
          <mxGeometry y="146" width="190" height="8" as="geometry" />
        </mxCell>
        <mxCell id="vSy6v21iyPpM1gTegaNe-94" value="searchBook()" style="text;strokeColor=none;fillColor=none;align=left;verticalAlign=top;spacingLeft=4;spacingRight=4;overflow=hidden;rotatable=0;points=[[0,0.5],[1,0.5]];portConstraint=eastwest;whiteSpace=wrap;html=1;" vertex="1" parent="vSy6v21iyPpM1gTegaNe-19">
          <mxGeometry y="154" width="190" height="26" as="geometry" />
        </mxCell>
        <mxCell id="vSy6v21iyPpM1gTegaNe-104" value="" style="edgeStyle=orthogonalEdgeStyle;rounded=0;orthogonalLoop=1;jettySize=auto;html=1;" edge="1" parent="1" source="vSy6v21iyPpM1gTegaNe-26" target="vSy6v21iyPpM1gTegaNe-91">
          <mxGeometry relative="1" as="geometry" />
        </mxCell>
        <mxCell id="vSy6v21iyPpM1gTegaNe-105" value="Has-a" style="edgeLabel;html=1;align=center;verticalAlign=middle;resizable=0;points=[];" vertex="1" connectable="0" parent="vSy6v21iyPpM1gTegaNe-104">
          <mxGeometry x="-0.4509" relative="1" as="geometry">
            <mxPoint as="offset" />
          </mxGeometry>
        </mxCell>
        <mxCell id="vSy6v21iyPpM1gTegaNe-26" value="User" style="swimlane;fontStyle=1;align=center;verticalAlign=top;childLayout=stackLayout;horizontal=1;startSize=26;horizontalStack=0;resizeParent=1;resizeParentMax=0;resizeLast=0;collapsible=1;marginBottom=0;whiteSpace=wrap;html=1;direction=east;fillColor=#d5e8d4;strokeColor=#82b366;" vertex="1" parent="1">
          <mxGeometry x="430" y="826" width="160" height="188" as="geometry">
            <mxRectangle x="530" y="560" width="100" height="30" as="alternateBounds" />
          </mxGeometry>
        </mxCell>
        <mxCell id="vSy6v21iyPpM1gTegaNe-27" value="username" style="text;strokeColor=none;fillColor=none;align=left;verticalAlign=top;spacingLeft=4;spacingRight=4;overflow=hidden;rotatable=0;points=[[0,0.5],[1,0.5]];portConstraint=eastwest;whiteSpace=wrap;html=1;" vertex="1" parent="vSy6v21iyPpM1gTegaNe-26">
          <mxGeometry y="26" width="160" height="26" as="geometry" />
        </mxCell>
        <mxCell id="vSy6v21iyPpM1gTegaNe-28" value="" style="line;strokeWidth=1;fillColor=none;align=left;verticalAlign=middle;spacingTop=-1;spacingLeft=3;spacingRight=3;rotatable=0;labelPosition=right;points=[];portConstraint=eastwest;strokeColor=inherit;" vertex="1" parent="vSy6v21iyPpM1gTegaNe-26">
          <mxGeometry y="52" width="160" height="8" as="geometry" />
        </mxCell>
        <mxCell id="vSy6v21iyPpM1gTegaNe-29" value="password" style="text;strokeColor=none;fillColor=none;align=left;verticalAlign=top;spacingLeft=4;spacingRight=4;overflow=hidden;rotatable=0;points=[[0,0.5],[1,0.5]];portConstraint=eastwest;whiteSpace=wrap;html=1;" vertex="1" parent="vSy6v21iyPpM1gTegaNe-26">
          <mxGeometry y="60" width="160" height="26" as="geometry" />
        </mxCell>
        <mxCell id="vSy6v21iyPpM1gTegaNe-30" value="" style="line;strokeWidth=1;fillColor=none;align=left;verticalAlign=middle;spacingTop=-1;spacingLeft=3;spacingRight=3;rotatable=0;labelPosition=right;points=[];portConstraint=eastwest;strokeColor=inherit;" vertex="1" parent="vSy6v21iyPpM1gTegaNe-26">
          <mxGeometry y="86" width="160" height="8" as="geometry" />
        </mxCell>
        <mxCell id="vSy6v21iyPpM1gTegaNe-31" value="email" style="text;strokeColor=none;fillColor=none;align=left;verticalAlign=top;spacingLeft=4;spacingRight=4;overflow=hidden;rotatable=0;points=[[0,0.5],[1,0.5]];portConstraint=eastwest;whiteSpace=wrap;html=1;" vertex="1" parent="vSy6v21iyPpM1gTegaNe-26">
          <mxGeometry y="94" width="160" height="26" as="geometry" />
        </mxCell>
        <mxCell id="vSy6v21iyPpM1gTegaNe-95" value="" style="line;strokeWidth=1;fillColor=none;align=left;verticalAlign=middle;spacingTop=-1;spacingLeft=3;spacingRight=3;rotatable=0;labelPosition=right;points=[];portConstraint=eastwest;strokeColor=inherit;" vertex="1" parent="vSy6v21iyPpM1gTegaNe-26">
          <mxGeometry y="120" width="160" height="8" as="geometry" />
        </mxCell>
        <mxCell id="vSy6v21iyPpM1gTegaNe-97" value="login()" style="text;strokeColor=none;fillColor=none;align=left;verticalAlign=top;spacingLeft=4;spacingRight=4;overflow=hidden;rotatable=0;points=[[0,0.5],[1,0.5]];portConstraint=eastwest;whiteSpace=wrap;html=1;" vertex="1" parent="vSy6v21iyPpM1gTegaNe-26">
          <mxGeometry y="128" width="160" height="26" as="geometry" />
        </mxCell>
        <mxCell id="vSy6v21iyPpM1gTegaNe-96" value="" style="line;strokeWidth=1;fillColor=none;align=left;verticalAlign=middle;spacingTop=-1;spacingLeft=3;spacingRight=3;rotatable=0;labelPosition=right;points=[];portConstraint=eastwest;strokeColor=inherit;" vertex="1" parent="vSy6v21iyPpM1gTegaNe-26">
          <mxGeometry y="154" width="160" height="8" as="geometry" />
        </mxCell>
        <mxCell id="vSy6v21iyPpM1gTegaNe-99" value="register()" style="text;strokeColor=none;fillColor=none;align=left;verticalAlign=top;spacingLeft=4;spacingRight=4;overflow=hidden;rotatable=0;points=[[0,0.5],[1,0.5]];portConstraint=eastwest;whiteSpace=wrap;html=1;" vertex="1" parent="vSy6v21iyPpM1gTegaNe-26">
          <mxGeometry y="162" width="160" height="26" as="geometry" />
        </mxCell>
        <mxCell id="vSy6v21iyPpM1gTegaNe-32" value="Admin" style="swimlane;fontStyle=1;align=center;verticalAlign=top;childLayout=stackLayout;horizontal=1;startSize=26;horizontalStack=0;resizeParent=1;resizeParentMax=0;resizeLast=0;collapsible=1;marginBottom=0;whiteSpace=wrap;html=1;direction=east;fillColor=#ffcccc;strokeColor=#36393d;" vertex="1" parent="1">
          <mxGeometry x="-130" y="826" width="160" height="154" as="geometry">
            <mxRectangle x="530" y="560" width="100" height="30" as="alternateBounds" />
          </mxGeometry>
        </mxCell>
        <mxCell id="vSy6v21iyPpM1gTegaNe-33" value="adminID" style="text;strokeColor=none;fillColor=none;align=left;verticalAlign=top;spacingLeft=4;spacingRight=4;overflow=hidden;rotatable=0;points=[[0,0.5],[1,0.5]];portConstraint=eastwest;whiteSpace=wrap;html=1;" vertex="1" parent="vSy6v21iyPpM1gTegaNe-32">
          <mxGeometry y="26" width="160" height="26" as="geometry" />
        </mxCell>
        <mxCell id="vSy6v21iyPpM1gTegaNe-34" value="" style="line;strokeWidth=1;fillColor=none;align=left;verticalAlign=middle;spacingTop=-1;spacingLeft=3;spacingRight=3;rotatable=0;labelPosition=right;points=[];portConstraint=eastwest;strokeColor=inherit;" vertex="1" parent="vSy6v21iyPpM1gTegaNe-32">
          <mxGeometry y="52" width="160" height="8" as="geometry" />
        </mxCell>
        <mxCell id="vSy6v21iyPpM1gTegaNe-35" value="permissions" style="text;strokeColor=none;fillColor=none;align=left;verticalAlign=top;spacingLeft=4;spacingRight=4;overflow=hidden;rotatable=0;points=[[0,0.5],[1,0.5]];portConstraint=eastwest;whiteSpace=wrap;html=1;" vertex="1" parent="vSy6v21iyPpM1gTegaNe-32">
          <mxGeometry y="60" width="160" height="26" as="geometry" />
        </mxCell>
        <mxCell id="vSy6v21iyPpM1gTegaNe-100" value="" style="line;strokeWidth=1;fillColor=none;align=left;verticalAlign=middle;spacingTop=-1;spacingLeft=3;spacingRight=3;rotatable=0;labelPosition=right;points=[];portConstraint=eastwest;strokeColor=inherit;" vertex="1" parent="vSy6v21iyPpM1gTegaNe-32">
          <mxGeometry y="86" width="160" height="8" as="geometry" />
        </mxCell>
        <mxCell id="vSy6v21iyPpM1gTegaNe-103" value="manageBook()" style="text;strokeColor=none;fillColor=none;align=left;verticalAlign=top;spacingLeft=4;spacingRight=4;overflow=hidden;rotatable=0;points=[[0,0.5],[1,0.5]];portConstraint=eastwest;whiteSpace=wrap;html=1;" vertex="1" parent="vSy6v21iyPpM1gTegaNe-32">
          <mxGeometry y="94" width="160" height="26" as="geometry" />
        </mxCell>
        <mxCell id="vSy6v21iyPpM1gTegaNe-101" value="" style="line;strokeWidth=1;fillColor=none;align=left;verticalAlign=middle;spacingTop=-1;spacingLeft=3;spacingRight=3;rotatable=0;labelPosition=right;points=[];portConstraint=eastwest;strokeColor=inherit;" vertex="1" parent="vSy6v21iyPpM1gTegaNe-32">
          <mxGeometry y="120" width="160" height="8" as="geometry" />
        </mxCell>
        <mxCell id="vSy6v21iyPpM1gTegaNe-102" value="deleteBook()" style="text;strokeColor=none;fillColor=none;align=left;verticalAlign=top;spacingLeft=4;spacingRight=4;overflow=hidden;rotatable=0;points=[[0,0.5],[1,0.5]];portConstraint=eastwest;whiteSpace=wrap;html=1;" vertex="1" parent="vSy6v21iyPpM1gTegaNe-32">
          <mxGeometry y="128" width="160" height="26" as="geometry" />
        </mxCell>
        <mxCell id="vSy6v21iyPpM1gTegaNe-106" value="" style="edgeStyle=orthogonalEdgeStyle;rounded=0;orthogonalLoop=1;jettySize=auto;html=1;" edge="1" parent="1" source="vSy6v21iyPpM1gTegaNe-35">
          <mxGeometry relative="1" as="geometry">
            <mxPoint x="130" y="901" as="targetPoint" />
          </mxGeometry>
        </mxCell>
        <mxCell id="vSy6v21iyPpM1gTegaNe-107" value="Manage" style="edgeLabel;html=1;align=center;verticalAlign=middle;resizable=0;points=[];" vertex="1" connectable="0" parent="vSy6v21iyPpM1gTegaNe-106">
          <mxGeometry x="0.0061" y="-1" relative="1" as="geometry">
            <mxPoint as="offset" />
          </mxGeometry>
        </mxCell>
        <mxCell id="vSy6v21iyPpM1gTegaNe-108" value="&lt;font&gt;&lt;font&gt;«Has-a» — это когда один объект &lt;/font&gt;&lt;/font&gt;&lt;strong&gt;&lt;font&gt;&lt;font&gt;содержит в себе другой объект или владеет им&lt;/font&gt;&lt;/font&gt;&lt;/strong&gt;&lt;font&gt;&lt;font&gt; .&lt;/font&gt;&lt;/font&gt;" style="text;whiteSpace=wrap;html=1;" vertex="1" parent="1">
          <mxGeometry x="326.5" y="750" width="160" height="70" as="geometry" />
        </mxCell>
        <mxCell id="vSy6v21iyPpM1gTegaNe-116" value="" style="edgeStyle=orthogonalEdgeStyle;rounded=0;orthogonalLoop=1;jettySize=auto;html=1;" edge="1" parent="1">
          <mxGeometry relative="1" as="geometry">
            <mxPoint x="-70" y="1159.6" as="sourcePoint" />
            <mxPoint x="90" y="1159.6" as="targetPoint" />
          </mxGeometry>
        </mxCell>
        <mxCell id="vSy6v21iyPpM1gTegaNe-109" value="&lt;span style=&quot;text-wrap-mode: wrap;&quot;&gt;User&lt;/span&gt;" style="shape=umlActor;verticalLabelPosition=bottom;verticalAlign=top;html=1;" vertex="1" parent="1">
          <mxGeometry x="-120" y="1124" width="50" height="100" as="geometry" />
        </mxCell>
        <mxCell id="vSy6v21iyPpM1gTegaNe-150" value="" style="edgeStyle=orthogonalEdgeStyle;rounded=0;orthogonalLoop=1;jettySize=auto;html=1;entryX=0.955;entryY=0.555;entryDx=0;entryDy=0;entryPerimeter=0;" edge="1" parent="1" source="vSy6v21iyPpM1gTegaNe-110" target="vSy6v21iyPpM1gTegaNe-111">
          <mxGeometry relative="1" as="geometry">
            <Array as="points" />
          </mxGeometry>
        </mxCell>
        <mxCell id="vSy6v21iyPpM1gTegaNe-110" value="" style="strokeWidth=2;html=1;shape=mxgraph.flowchart.database;whiteSpace=wrap;" vertex="1" parent="1">
          <mxGeometry x="310" y="1110" width="120" height="150" as="geometry" />
        </mxCell>
        <mxCell id="vSy6v21iyPpM1gTegaNe-149" value="" style="edgeStyle=orthogonalEdgeStyle;rounded=0;orthogonalLoop=1;jettySize=auto;html=1;" edge="1" parent="1" source="vSy6v21iyPpM1gTegaNe-111" target="vSy6v21iyPpM1gTegaNe-109">
          <mxGeometry relative="1" as="geometry">
            <mxPoint y="1174" as="targetPoint" />
          </mxGeometry>
        </mxCell>
        <mxCell id="vSy6v21iyPpM1gTegaNe-111" value="" style="image;html=1;image=img/lib/clip_art/computers/Secure_System_128x128.png" vertex="1" parent="1">
          <mxGeometry x="95" y="1119" width="110" height="110" as="geometry" />
        </mxCell>
        <mxCell id="vSy6v21iyPpM1gTegaNe-112" value="логин тексеру,&lt;div&gt;дерекқордан іздеу,&amp;nbsp;&lt;/div&gt;&lt;div&gt;нәтижелерді көрсету&lt;/div&gt;" style="text;whiteSpace=wrap;html=1;" vertex="1" parent="1">
          <mxGeometry x="95" y="1239" width="120" height="50" as="geometry" />
        </mxCell>
        <mxCell id="vSy6v21iyPpM1gTegaNe-113" value="логин енгізу, кітап атауын енгізу" style="text;whiteSpace=wrap;html=1;" vertex="1" parent="1">
          <mxGeometry x="-120" y="1250" width="90" height="50" as="geometry" />
        </mxCell>
        <mxCell id="vSy6v21iyPpM1gTegaNe-114" style="edgeStyle=orthogonalEdgeStyle;rounded=0;orthogonalLoop=1;jettySize=auto;html=1;exitX=0.5;exitY=1;exitDx=0;exitDy=0;" edge="1" parent="1" source="vSy6v21iyPpM1gTegaNe-113" target="vSy6v21iyPpM1gTegaNe-113">
          <mxGeometry relative="1" as="geometry" />
        </mxCell>
        <mxCell id="vSy6v21iyPpM1gTegaNe-117" style="edgeStyle=orthogonalEdgeStyle;rounded=0;orthogonalLoop=1;jettySize=auto;html=1;entryX=-0.016;entryY=0.369;entryDx=0;entryDy=0;entryPerimeter=0;" edge="1" parent="1" source="vSy6v21iyPpM1gTegaNe-111" target="vSy6v21iyPpM1gTegaNe-110">
          <mxGeometry relative="1" as="geometry">
            <Array as="points">
              <mxPoint x="200" y="1165" />
              <mxPoint x="200" y="1165" />
            </Array>
          </mxGeometry>
        </mxCell>
        <mxCell id="vSy6v21iyPpM1gTegaNe-119" value="&lt;p&gt;&lt;strong&gt;Диаграммада көрсетілген қадамдар:&lt;/strong&gt;&lt;/p&gt;&lt;ol&gt;&lt;li&gt;Қолданушы логин енгізеді.&lt;/li&gt;&lt;li&gt;Жүйе логинді тексереді.&lt;/li&gt;&lt;li&gt;Қолданушы кітап атауын енгізеді.&lt;/li&gt;&lt;li&gt;Жүйе дерекқордан кітап іздейді.&lt;/li&gt;&lt;li&gt;Жүйе нәтижелерді қайтарады.&lt;/li&gt;&lt;/ol&gt;" style="text;whiteSpace=wrap;html=1;" vertex="1" parent="1">
          <mxGeometry x="-413" y="1224" width="260" height="150" as="geometry" />
        </mxCell>
        <mxCell id="vSy6v21iyPpM1gTegaNe-134" value="" style="edgeStyle=orthogonalEdgeStyle;rounded=0;orthogonalLoop=1;jettySize=auto;html=1;" edge="1" parent="1">
          <mxGeometry relative="1" as="geometry">
            <mxPoint x="20" y="1379" as="sourcePoint" />
            <mxPoint x="100" y="1379" as="targetPoint" />
          </mxGeometry>
        </mxCell>
        <mxCell id="vSy6v21iyPpM1gTegaNe-131" value="&lt;p style=&quot;margin:0px;margin-top:4px;margin-left:5px;text-align:left;&quot;&gt;&lt;span style=&quot;text-align: center; text-wrap-mode: wrap;&quot;&gt;User&lt;/span&gt;&lt;/p&gt;" style="html=1;shape=mxgraph.sysml.package;overflow=fill;labelX=95;align=left;spacingLeft=5;verticalAlign=top;spacingTop=-3;" vertex="1" parent="1">
          <mxGeometry x="-140" y="1350" width="160" height="80" as="geometry" />
        </mxCell>
        <mxCell id="vSy6v21iyPpM1gTegaNe-141" value="" style="edgeStyle=orthogonalEdgeStyle;rounded=0;orthogonalLoop=1;jettySize=auto;html=1;" edge="1" parent="1" source="vSy6v21iyPpM1gTegaNe-133" target="vSy6v21iyPpM1gTegaNe-140">
          <mxGeometry relative="1" as="geometry">
            <Array as="points">
              <mxPoint x="293.5" y="1380" />
              <mxPoint x="293.5" y="1380" />
            </Array>
          </mxGeometry>
        </mxCell>
        <mxCell id="vSy6v21iyPpM1gTegaNe-147" value="" style="edgeStyle=orthogonalEdgeStyle;rounded=0;orthogonalLoop=1;jettySize=auto;html=1;" edge="1" parent="1" source="vSy6v21iyPpM1gTegaNe-133" target="vSy6v21iyPpM1gTegaNe-136">
          <mxGeometry relative="1" as="geometry" />
        </mxCell>
        <mxCell id="vSy6v21iyPpM1gTegaNe-133" value="&lt;p style=&quot;margin:0px;margin-top:4px;margin-left:5px;text-align:left;&quot;&gt;&lt;span style=&quot;text-align: center; text-wrap-mode: wrap;&quot;&gt;System&lt;/span&gt;&lt;/p&gt;" style="html=1;shape=mxgraph.sysml.package;overflow=fill;labelX=95;align=left;spacingLeft=5;verticalAlign=top;spacingTop=-3;" vertex="1" parent="1">
          <mxGeometry x="100" y="1350" width="160" height="80" as="geometry" />
        </mxCell>
        <mxCell id="vSy6v21iyPpM1gTegaNe-136" value="&lt;span style=&quot;text-align: left;&quot;&gt;логин енгізу,&amp;nbsp;&lt;/span&gt;&lt;div&gt;&lt;span style=&quot;text-align: left;&quot;&gt;кітап атауын енгізу&lt;/span&gt;&lt;/div&gt;" style="text;strokeColor=none;align=center;fillColor=none;html=1;verticalAlign=middle;whiteSpace=wrap;rounded=0;" vertex="1" parent="1">
          <mxGeometry x="-120" y="1379" width="110" height="31" as="geometry" />
        </mxCell>
        <mxCell id="vSy6v21iyPpM1gTegaNe-137" value="&lt;span style=&quot;text-align: left;&quot;&gt;логин тексеру,&lt;/span&gt;&lt;div style=&quot;text-align: left;&quot;&gt;дерекқордан іздеу,&amp;nbsp;&lt;/div&gt;&lt;div style=&quot;text-align: left;&quot;&gt;нәтижелерді көрсету&lt;/div&gt;" style="text;strokeColor=none;align=center;fillColor=none;html=1;verticalAlign=middle;whiteSpace=wrap;rounded=0;" vertex="1" parent="1">
          <mxGeometry x="120" y="1379" width="120" height="41" as="geometry" />
        </mxCell>
        <mxCell id="vSy6v21iyPpM1gTegaNe-146" value="" style="edgeStyle=orthogonalEdgeStyle;rounded=0;orthogonalLoop=1;jettySize=auto;html=1;" edge="1" parent="1" source="vSy6v21iyPpM1gTegaNe-140" target="vSy6v21iyPpM1gTegaNe-137">
          <mxGeometry relative="1" as="geometry" />
        </mxCell>
        <mxCell id="vSy6v21iyPpM1gTegaNe-140" value="&lt;p style=&quot;margin:0px;margin-top:4px;margin-left:5px;text-align:left;&quot;&gt;&lt;span style=&quot;text-align: center; text-wrap-mode: wrap;&quot;&gt;Database&lt;/span&gt;&lt;/p&gt;" style="html=1;shape=mxgraph.sysml.package;overflow=fill;labelX=95;align=left;spacingLeft=5;verticalAlign=top;spacingTop=-3;" vertex="1" parent="1">
          <mxGeometry x="340" y="1350" width="160" height="80" as="geometry" />
        </mxCell>
        <mxCell id="vSy6v21iyPpM1gTegaNe-167" value="" style="edgeStyle=orthogonalEdgeStyle;rounded=0;orthogonalLoop=1;jettySize=auto;html=1;" edge="1" parent="1" source="vSy6v21iyPpM1gTegaNe-162" target="vSy6v21iyPpM1gTegaNe-165">
          <mxGeometry relative="1" as="geometry" />
        </mxCell>
        <mxCell id="vSy6v21iyPpM1gTegaNe-162" value="&lt;div&gt;&lt;font style=&quot;vertical-align: inherit;&quot;&gt;&lt;br&gt;&lt;/font&gt;&lt;/div&gt;&lt;font style=&quot;vertical-align: inherit;&quot;&gt;кітапты іздеу, жазылу,&lt;/font&gt;&lt;div&gt;&lt;font style=&quot;vertical-align: inherit;&quot;&gt;&amp;nbsp;пікір қалдыру.&lt;/font&gt;&lt;/div&gt;" style="html=1;shape=mxgraph.sysml.useCaseExtPt;whiteSpace=wrap;align=center;" vertex="1" parent="1">
          <mxGeometry x="-250" y="540" width="160" height="80" as="geometry" />
        </mxCell>
        <mxCell id="vSy6v21iyPpM1gTegaNe-163" value="User" style="resizable=0;html=1;verticalAlign=middle;align=center;labelBackgroundColor=none;fontStyle=1;" connectable="0" vertex="1" parent="vSy6v21iyPpM1gTegaNe-162">
          <mxGeometry x="80" y="17" as="geometry" />
        </mxCell>
        <mxCell id="vSy6v21iyPpM1gTegaNe-168" style="edgeStyle=orthogonalEdgeStyle;rounded=0;orthogonalLoop=1;jettySize=auto;html=1;" edge="1" parent="1" source="vSy6v21iyPpM1gTegaNe-165" target="vSy6v21iyPpM1gTegaNe-162">
          <mxGeometry relative="1" as="geometry">
            <Array as="points">
              <mxPoint x="-60" y="570" />
              <mxPoint x="-60" y="570" />
            </Array>
          </mxGeometry>
        </mxCell>
        <mxCell id="vSy6v21iyPpM1gTegaNe-165" value="&lt;div&gt;&lt;font style=&quot;vertical-align: inherit;&quot;&gt;&lt;br&gt;&lt;/font&gt;&lt;/div&gt;&lt;font style=&quot;vertical-align: inherit;&quot;&gt;&lt;div&gt;&lt;span style=&quot;background-color: initial;&quot;&gt;кітап қосу, қолданушыларды басқару,&amp;nbsp;&lt;/span&gt;&lt;/div&gt;&lt;/font&gt;&lt;div&gt;&lt;font style=&quot;vertical-align: inherit;&quot;&gt;пікірлерді жою.&lt;/font&gt;&lt;/div&gt;" style="html=1;shape=mxgraph.sysml.useCaseExtPt;whiteSpace=wrap;align=center;" vertex="1" parent="1">
          <mxGeometry x="-25" y="540" width="160" height="80" as="geometry" />
        </mxCell>
        <mxCell id="vSy6v21iyPpM1gTegaNe-166" value="Admin" style="resizable=0;html=1;verticalAlign=middle;align=center;labelBackgroundColor=none;fontStyle=1;" connectable="0" vertex="1" parent="vSy6v21iyPpM1gTegaNe-165">
          <mxGeometry x="80" y="17" as="geometry" />
        </mxCell>
        <mxCell id="vSy6v21iyPpM1gTegaNe-170" value="Методтар" style="text;strokeColor=none;align=center;fillColor=none;html=1;verticalAlign=middle;whiteSpace=wrap;rounded=0;" vertex="1" parent="1">
          <mxGeometry x="-200" y="920" width="60" height="30" as="geometry" />
        </mxCell>
        <mxCell id="vSy6v21iyPpM1gTegaNe-171" value="Методтар" style="text;strokeColor=none;align=center;fillColor=none;html=1;verticalAlign=middle;whiteSpace=wrap;rounded=0;" vertex="1" parent="1">
          <mxGeometry x="70" y="950" width="60" height="30" as="geometry" />
        </mxCell>
        <mxCell id="vSy6v21iyPpM1gTegaNe-172" value="Методтар" style="text;strokeColor=none;align=center;fillColor=none;html=1;verticalAlign=middle;whiteSpace=wrap;rounded=0;" vertex="1" parent="1">
          <mxGeometry x="370" y="960" width="60" height="30" as="geometry" />
        </mxCell>
      </root>
    </mxGraphModel>
  </diagram>
</mxfile>
